<?xml version="1.0" encoding="utf-8"?>
<!-- Generator: Adobe Illustrator 22.1.0, SVG Export Plug-In . SVG Version: 6.00 Build 0)  -->
<svg version="1.1" id="Capa_1" xmlns="http://www.w3.org/2000/svg" xmlns:xlink="http://www.w3.org/1999/xlink" x="0px" y="0px"
	 viewBox="0 0 978.7 978.7" style="enable-background:new 0 0 978.7 978.7;" xml:space="preserve">
<style type="text/css">
	.st0{fill:#09C949;}
</style>
<g>
	<path class="st0" d="M64.1,214.1c35.6,82.8,95.7,164.7,179.8,200c9.6,4,20.5,7,31.7,9.5c22.4-33.4,48.1-60.5,78.2-82.7
		c25.9-19,53-33.9,80.9-45.6c-8-5.6-16.4-10.7-25.2-15.3c-35-18.3-72.9-34.4-109.8-51.7c34.7,9.4,74.5,12.9,107.7,25
		c20.7,7.6,39.8,18.1,57.6,30.6c53.1-18.1,108.6-26.8,164-33.4C584.1,175.9,488.3,116,416.1,88.9c-75.4-28.3-160.8-31.8-244.7-40.5
		C120,43.1,64.1,23.9,23.2,1.5C13.9-3.6,4,4.9,7.2,15.2C27.3,79.5,37.5,152.3,64.1,214.1z"/>
	<path class="st0" d="M950.6,204.3C856,255.7,747.5,262,641.2,274.2c-51.9,6-103.3,13.4-152.2,28.2c-10.6,3.2-21.2,6.8-31.6,10.8
		c-30.9,11.8-60.7,27.3-88.8,48c-26.4,19.4-48,42.4-66.2,67.7c-29,40.4-49.2,86.9-65.8,135.2c-30.3,87.7-44.2,180.9-41.5,273.6
		c1.1,37.6,1.7,76.7,11,113.4c2.1,8.1,4.1,18.4,10.4,24.4c8.2,7.9,22.9-0.2,19.6-11.7c-23.8-81.1-9-175.9,23.9-253.4
		c37.8-89.1,110.8-142.1,200-174.4c23.7-8.6,47.9-16.1,72.5-23.2c0.5-0.2,1-0.2,1.5-0.2c4.9,0,7,7.2,1.9,9.5
		c-29,13.1-57.8,26.3-85.2,40.6c-134.2,70-192.8,233-142.5,233c4.1,0,8.9-1.1,14.4-3.4c77.6-32.1,169.8-32.4,255.1-48.2
		c30-5.5,59.2-13,86.6-24.4c108.8-45.4,186.6-134.2,232.9-241c34.5-79.7,47.9-173.8,74-256.6c3.4-10.6-4.1-19.7-13.3-19.7
		C955.6,202.3,953.1,202.9,950.6,204.3z"/>
</g>
</svg>
