<?xml version="1.0" encoding="utf-8"?>
<!-- Generator: Adobe Illustrator 22.1.0, SVG Export Plug-In . SVG Version: 6.00 Build 0)  -->
<svg version="1.1" id="Layer_1" xmlns="http://www.w3.org/2000/svg" xmlns:xlink="http://www.w3.org/1999/xlink" x="0px" y="0px"
	 viewBox="0 0 1080 1080" style="enable-background:new 0 0 1080 1080;" xml:space="preserve">
<style type="text/css">
	.st0{fill:#FFFFFF;}
	.st1{fill:#726969;}
	.st2{fill:#F12986;}
	.st3{fill:#09C949;}
	.st4{fill:#6F6F70;}
</style>
<g>
	<path class="st0" d="M541.3,1001.5c-62.7,0-123.5-12.3-180.8-36.5c-55.3-23.4-105-56.9-147.6-99.5c-42.7-42.7-76.1-92.3-99.5-147.6
		c-24.2-57.3-36.5-118.1-36.5-180.8s12.3-123.5,36.5-180.8c23.4-55.3,56.9-105,99.5-147.6c42.7-42.7,92.3-76.1,147.6-99.5
		C417.8,85,478.6,72.7,541.3,72.7S664.8,85,722,109.2c55.3,23.4,105,56.9,147.6,99.5c42.7,42.7,76.1,92.3,99.5,147.6
		c24.2,57.3,36.5,118.1,36.5,180.8s-12.3,123.5-36.5,180.8c-23.4,55.3-56.9,105-99.5,147.6C827,908.1,777.3,941.6,722,965
		C664.8,989.2,604,1001.5,541.3,1001.5z"/>
	<path class="st1" d="M541.3,74.2c62.5,0,123.1,12.2,180.2,36.4c55.1,23.3,104.6,56.7,147.1,99.2c42.5,42.5,75.9,92,99.2,147.1
		c24.1,57.1,36.4,117.7,36.4,180.2s-12.2,123.1-36.4,180.2c-23.3,55.1-56.7,104.6-99.2,147.1c-42.5,42.5-92,75.9-147.1,99.2
		c-57.1,24.1-117.7,36.4-180.2,36.4s-123.1-12.2-180.2-36.4c-55.1-23.3-104.6-56.7-147.1-99.2c-42.5-42.5-75.9-92-99.2-147.1
		c-24.1-57.1-36.4-117.7-36.4-180.2S90.6,414,114.7,356.9c23.3-55.1,56.7-104.6,99.2-147.1c42.5-42.5,92-75.9,147.1-99.2
		C418.2,86.4,478.8,74.2,541.3,74.2 M541.3,71.2C284,71.2,75.4,279.8,75.4,537.1S284,1003,541.3,1003s465.9-208.6,465.9-465.9
		S798.6,71.2,541.3,71.2L541.3,71.2z"/>
</g>
<g>
	<circle class="st2" cx="544.2" cy="534.2" r="312.5"/>
</g>
<g>
	<g>
		<path class="st0" d="M272.8,489.4c0.2,10.6,3.1,22.2,10.6,29.9c0.9,0.9,1.9,1.7,3,2.5c3.9-2.6,8-4.4,12.2-5.5
			c3.7-0.9,7.3-1.3,10.9-1.3c-0.6-1-1.3-1.9-2.1-2.8c-3-3.6-6.4-7-9.7-10.6c3.4,2.6,7.5,4.7,10.6,7.5c1.9,1.8,3.5,3.8,4.9,5.9
			c6.6,0.4,13,1.9,19.4,3.7c-1.6-10.1-9.3-21-16-27.2c-7-6.5-16.1-10.7-24.9-15.4c-5.4-2.9-10.6-7.5-14.1-11.8
			c-0.8-1-2.2-0.5-2.4,0.8C274.8,473,272.6,481.4,272.8,489.4z"/>
		<path class="st0" d="M369.8,528c-12.6,1.4-24.7-2.8-36.9-6.2c-5.9-1.7-11.9-3.2-17.9-3.7c-1.3-0.1-2.6-0.2-3.9-0.2
			c-3.9-0.1-7.8,0.3-11.8,1.3c-3.7,0.9-7.1,2.5-10.2,4.4c-5,3.1-9.3,7.3-13.2,11.8c-7.2,8.2-12.9,17.7-16.8,28
			c-1.6,4.1-3.3,8.4-3.9,12.9c-0.1,1-0.4,2.2,0,3.1c0.5,1.2,2.5,1,2.7-0.4c1-9.9,6.9-19.6,14-26.6c8.1-8,18.4-10.5,29.6-10.1
			c3,0.1,5.9,0.4,8.9,0.7c0.1,0,0.1,0,0.2,0c0.5,0.2,0.4,1.1-0.2,1.1c-3.7,0.1-7.5,0.3-11.1,0.6c-17.8,1.6-31.5,16.8-26,19
			c0.4,0.2,1,0.3,1.7,0.3c9.9,0,20,4.1,30,6.2c3.5,0.7,7,1.2,10.5,1.2c13.9-0.1,26.4-6.3,36.2-15.8c7.3-7.1,13-16.8,19.6-24.7
			c0.8-1,0.4-2.3-0.6-2.7C370.5,528,370.2,528,369.8,528z"/>
	</g>
</g>
<g>
	<g>
		<path class="st0" d="M492.2,755.3c3.6,8.4,9.8,16.8,18.3,20.4c1,0.4,2.1,0.7,3.2,1c2.3-3.4,4.9-6.2,8-8.4c2.6-1.9,5.4-3.5,8.2-4.6
			c-0.8-0.6-1.7-1.1-2.6-1.6c-3.6-1.9-7.4-3.5-11.2-5.3c3.5,1,7.6,1.3,11,2.5c2.1,0.8,4.1,1.8,5.9,3.1c5.4-1.8,11.1-2.7,16.7-3.4
			c-4.6-7.6-14.3-13.7-21.7-16.5c-7.7-2.9-16.4-3.2-24.9-4.1c-5.2-0.5-10.9-2.5-15.1-4.8c-0.9-0.5-2,0.3-1.6,1.4
			C488.4,741.6,489.4,749,492.2,755.3z"/>
		<path class="st0" d="M582.5,754.3c-9.6,5.2-20.7,5.9-31.5,7.1c-5.3,0.6-10.5,1.4-15.5,2.9c-1.1,0.3-2.2,0.7-3.2,1.1
			c-3.1,1.2-6.2,2.8-9,4.9c-2.7,2-4.9,4.3-6.7,6.9c-3,4.1-5,8.9-6.7,13.8c-3.1,8.9-4.5,18.4-4.2,27.9c0.1,3.8,0.2,7.8,1.1,11.6
			c0.2,0.8,0.4,1.9,1.1,2.5c0.8,0.8,2.3,0,2-1.2c-2.4-8.3-0.9-17.9,2.4-25.8c3.9-9.1,11.3-14.5,20.4-17.8c2.4-0.9,4.9-1.6,7.4-2.4
			c0.1,0,0.1,0,0.2,0c0.5,0,0.7,0.7,0.2,1c-3,1.3-5.9,2.7-8.7,4.1c-13.7,7.1-19.6,23.7-14.5,23.7c0.4,0,0.9-0.1,1.5-0.3
			c7.9-3.3,17.3-3.3,26-4.9c3.1-0.6,6-1.3,8.8-2.5c11.1-4.6,19-13.7,23.7-24.6c3.5-8.1,4.9-17.7,7.5-26.2c0.3-1.1-0.4-2-1.4-2
			C583,754.1,582.8,754.2,582.5,754.3z"/>
	</g>
</g>
<g>
	<g>
		<path class="st0" d="M736,531.4c4.1,10.1,11.1,20.1,20.9,24.4c1.1,0.5,2.4,0.9,3.7,1.2c2.6-4.1,5.6-7.4,9.1-10.1
			c3-2.3,6.2-4.1,9.4-5.6c-0.9-0.7-1.9-1.3-2.9-1.9c-4.1-2.2-8.5-4.2-12.7-6.3c4,1.1,8.6,1.6,12.5,3.1c2.4,0.9,4.6,2.2,6.7,3.7
			c6.2-2.2,12.6-3.3,19-4.1c-5.2-9.1-16.3-16.4-24.7-19.8c-8.8-3.5-18.7-3.9-28.4-5c-6-0.6-12.5-3-17.2-5.7
			c-1.1-0.6-2.2,0.4-1.9,1.7C731.8,515,733,523.9,736,531.4z"/>
		<path class="st0" d="M838.9,530.2c-11,6.3-23.6,7.1-35.9,8.5c-6,0.7-12,1.6-17.7,3.4c-1.2,0.4-2.5,0.8-3.7,1.3
			c-3.6,1.4-7,3.3-10.3,5.9c-3.1,2.4-5.6,5.2-7.7,8.3c-3.4,4.9-5.7,10.6-7.6,16.5c-3.5,10.7-5.1,22.1-4.8,33.4
			c0.1,4.6,0.2,9.4,1.3,13.9c0.2,1,0.5,2.2,1.2,3c1,1,2.7,0,2.3-1.4c-2.8-9.9-1-21.5,2.8-31c4.4-10.9,12.9-17.4,23.2-21.3
			c2.8-1.1,5.6-2,8.4-2.8c0.1,0,0.1,0,0.2,0c0.6,0,0.8,0.9,0.2,1.2c-3.4,1.6-6.7,3.2-9.9,5c-15.6,8.6-22.4,28.5-16.5,28.5
			c0.5,0,1-0.1,1.7-0.4c9-3.9,19.7-4,29.6-5.9c3.5-0.7,6.9-1.6,10-3c12.6-5.5,21.7-16.4,27-29.5c4-9.7,5.6-21.2,8.6-31.4
			c0.4-1.3-0.5-2.4-1.5-2.4C839.5,530,839.2,530.1,838.9,530.2z"/>
	</g>
</g>
<g>
	<g>
		<path class="st0" d="M577.8,314.6c-3.9-8.8-10.4-17.5-19.5-21.2c-1-0.4-2.2-0.7-3.4-1c-2.4,3.6-5.1,6.5-8.3,8.9
			c-2.8,2.1-5.6,3.7-8.6,5c0.9,0.6,1.8,1.1,2.7,1.6c3.8,1.9,7.8,3.6,11.8,5.4c-3.7-1-8-1.3-11.6-2.6c-2.2-0.8-4.3-1.9-6.2-3.2
			c-5.7,2-11.6,3-17.5,3.8c4.9,7.9,15.2,14.2,23,17.1c8.1,2.9,17.3,3.2,26.3,4.1c5.5,0.5,11.5,2.5,15.9,4.8c1,0.5,2.1-0.4,1.7-1.5
			C581.9,329,580.7,321.2,577.8,314.6z"/>
		<path class="st0" d="M482.9,316.7c10.1-5.6,21.7-6.4,33.1-7.8c5.6-0.7,11-1.6,16.3-3.2c1.1-0.4,2.3-0.8,3.4-1.2
			c3.3-1.3,6.5-3,9.5-5.2c2.8-2.1,5.1-4.6,7-7.3c3.1-4.4,5.2-9.4,6.9-14.6c3.1-9.4,4.5-19.4,4.1-29.4c-0.2-4-0.3-8.2-1.3-12.1
			c-0.2-0.9-0.5-2-1.1-2.6c-0.9-0.8-2.5,0-2.1,1.3c2.6,8.7,1.2,18.8-2.3,27.2c-3.9,9.6-11.7,15.3-21.2,18.9
			c-2.5,0.9-5.1,1.8-7.7,2.6c-0.1,0-0.1,0-0.2,0c-0.5,0-0.8-0.8-0.2-1c3.1-1.4,6.2-2.9,9.1-4.4c14.3-7.7,20.4-25.2,15-25.1
			c-0.4,0-1,0.1-1.5,0.4c-8.3,3.5-18.1,3.7-27.3,5.5c-3.2,0.6-6.3,1.5-9.2,2.7c-11.6,5-19.8,14.6-24.7,26.1
			c-3.6,8.6-4.9,18.7-7.6,27.6c-0.4,1.1,0.5,2.1,1.4,2.1C482.3,316.9,482.6,316.9,482.9,316.7z"/>
	</g>
</g>
<g>
	<g>
		<path class="st3" d="M435,327.1c0,0,3.1-6.4,7.6-10.1c33.1-27.7,7.2-48.8,6.7-48.7c0,0-0.8,4.5-2.9,7.7
			c-13.4,20.2-11.5,37.1-11.5,37.1s-2.7-20.2,9.4-37.8c2.7-3.9,2.8-11.1,1.5-17.8c0,0-2.2,2-3.2,2.6c0.6,3,0.7,6,0,8.9
			c-23.8,5.6-24.6,26.7-23.2,33.5C422.6,318.5,435,327.1,435,327.1z"/>
	</g>
</g>
<g>
	<g>
		<path class="st3" d="M606.3,761c0,0,1.5,6.9,0.2,12.6c-9.3,42.2,24.1,43,24.5,42.6c0,0-2.1-4-2.4-7.9C626.9,784.2,615,772,615,772
			s14.5,14.3,15.6,35.6c0.3,4.7,4.6,10.5,9.7,15c0,0,0.5-2.9,0.9-4c-2.3-2-4.2-4.3-5.5-7c15.4-19,3.1-36.2-2.1-40.7
			C621.4,760.2,606.3,761,606.3,761z"/>
	</g>
</g>
<g>
	<g>
		<path class="st3" d="M463.7,760.8c0,0-6.4,3-12.2,3c-43.2,0.4-36.5,33.1-36,33.4c0,0,3.5-3,7.1-4.1c23.2-7.1,32.4-21.4,32.4-21.4
			S444.3,789,423.8,795c-4.5,1.3-9.2,6.8-12.5,12.8c0,0,2.9-0.1,4.1,0c1.4-2.7,3.3-5,5.6-6.9c22,10.8,35.9-5.1,39.2-11.2
			C467.9,775.2,463.7,760.8,463.7,760.8z"/>
	</g>
</g>
<g>
	<g>
		<path class="st3" d="M374.2,715.6c0,0-2.1,6.7-6,11.1c-28.7,32.3,0,49.3,0.5,49.1c0,0,0.1-4.6,1.7-8c10.3-21.9,6-38.3,6-38.3
			s5.6,19.6-3.8,38.7c-2.1,4.2-1.2,11.4,1.1,17.8c0,0,1.9-2.3,2.8-3.1c-1-2.8-1.5-5.8-1.3-8.8c22.7-9,20.4-30,18.1-36.5
			C387.7,722.2,374.2,715.6,374.2,715.6z"/>
	</g>
</g>
<g>
	<g>
		<path class="st3" d="M285.9,588.4c0,0-2.9,6.4-7.3,10.3c-32.5,28.4-6.1,48.9-5.6,48.8c0,0,0.7-4.5,2.7-7.7
			c13-20.5,10.7-37.3,10.7-37.3s3.1,20.1-8.5,38c-2.6,3.9-2.6,11.1-1.1,17.8c0,0,2.1-2,3.1-2.7c-0.7-2.9-0.8-5.9-0.2-8.9
			c23.7-6.1,24-27.2,22.5-34C298.4,596.7,285.9,588.4,285.9,588.4z"/>
	</g>
</g>
<g>
	<g>
		<path class="st3" d="M763.8,631.3c0,0,2.6,6.6,2.3,12.4c-2.2,43.1,30.8,38.5,31.1,38c0,0-2.8-3.6-3.7-7.4
			c-5.7-23.6-19.4-33.6-19.4-33.6s16.6,11.7,21.3,32.6c1,4.6,6.2,9.6,12,13.2c0,0,0-2.9,0.2-4.1c-2.6-1.6-4.8-3.6-6.5-6
			c12.1-21.3-2.9-36.2-8.8-39.8C778.5,628,763.8,631.3,763.8,631.3z"/>
	</g>
</g>
<g>
	<g>
		<path class="st3" d="M300.5,667.9c0,0,1.2,7-0.2,12.6c-10.5,41.9,22.8,43.7,23.2,43.3c0,0-2-4.1-2.2-7.9
			c-1-24.2-12.5-36.7-12.5-36.7s14,14.7,14.6,36.1c0.1,4.7,4.2,10.6,9.2,15.3c0,0,0.6-2.9,1-4c-2.2-2-4-4.4-5.3-7.2
			c16-18.5,4.2-36-0.9-40.7C315.5,667.6,300.5,667.9,300.5,667.9z"/>
	</g>
</g>
<g>
	<g>
		<path class="st3" d="M655.4,750c0,0,5.5,4.5,8.1,9.7c19.4,38.6,45.8,18.2,45.8,17.6c0,0-4.2-1.8-6.8-4.6
			C685.9,755,669.1,753,669.1,753s20.3,2,34.6,17.8c3.2,3.5,10.2,5.3,17,5.6c0,0-1.4-2.6-1.8-3.7c-3-0.1-6-0.7-8.7-2
			c0-24.5-20.4-30-27.3-30.2C666.5,739.9,655.4,750,655.4,750z"/>
	</g>
</g>
<g>
	<g>
		<path class="st3" d="M733.6,685.9c0,0,1.5,6.9,0.3,12.6c-9.1,42.2,24.3,42.9,24.6,42.5c0,0-2.2-4-2.4-7.8
			c-1.8-24.2-13.7-36.3-13.7-36.3s14.5,14.3,15.8,35.6c0.3,4.7,4.6,10.5,9.7,15c0,0,0.5-2.9,0.9-4c-2.3-2-4.2-4.3-5.5-7
			c15.3-19,3-36.2-2.3-40.7C748.6,685,733.6,685.9,733.6,685.9z"/>
	</g>
</g>
<g>
	<g>
		<path class="st3" d="M355.6,395.5c0,0-2.2-6.7-1.5-12.5c4.8-42.9-28.5-40.2-28.8-39.8c0,0,2.6,3.8,3.2,7.6
			c4.3,23.9,17.3,34.7,17.3,34.7s-15.9-12.7-19.3-33.8c-0.8-4.6-5.6-9.9-11.2-13.9c0,0-0.2,2.9-0.5,4.1c2.5,1.7,4.6,3.8,6.2,6.4
			c-13.3,20.5,0.7,36.3,6.4,40.2C340.8,397.9,355.6,395.5,355.6,395.5z"/>
	</g>
</g>
<g>
	<g>
		<path class="st3" d="M334.4,428.2c0,0-6.5-2.8-10.5-7.1c-29.3-31.8-49-4.9-48.9-4.3c0,0,4.5,0.6,7.8,2.5
			c20.8,12.4,37.6,9.7,37.6,9.7s-20,3.7-38.2-7.6c-4-2.5-11.2-2.3-17.8-0.7c0,0,2.1,2.1,2.8,3c2.9-0.7,5.9-1,8.9-0.5
			c6.7,23.5,27.8,23.3,34.5,21.6C326.5,441,334.4,428.2,334.4,428.2z"/>
	</g>
</g>
<g>
	<g>
		<path class="st3" d="M746.1,366.1c0,0,4.2,5.7,5.5,11.4c9.3,42.2,39.9,28.9,40.1,28.4c0,0-3.6-2.8-5.5-6.1
			c-11.7-21.2-27.6-27.3-27.6-27.3s19.1,6.9,29.2,25.8c2.2,4.2,8.5,7.6,15.1,9.6c0,0-0.7-2.8-0.9-4c-2.9-0.8-5.6-2.2-7.9-4.1
			c6-23.7-12.4-34.1-19-36C759.4,359.1,746.1,366.1,746.1,366.1z"/>
	</g>
</g>
<g>
	<g>
		<path class="st3" d="M394.7,359.2c0,0-0.5-7.1,1.5-12.5c15-40.5-18-45.9-18.4-45.5c0,0,1.6,4.3,1.3,8.1
			c-1.6,24.2,8.5,37.9,8.5,37.9s-12.4-16.2-10.6-37.4c0.4-4.7-3.1-11-7.5-16.2c0,0-0.9,2.8-1.4,3.9c2,2.3,3.5,4.8,4.5,7.7
			c-17.9,16.7-8,35.4-3.5,40.6C379.7,357.9,394.7,359.2,394.7,359.2z"/>
	</g>
</g>
<g>
	<g>
		<path class="st3" d="M688.6,333.6c0,0,7,1.1,11.9,4.3c36.1,23.7,48.8-7.1,48.5-7.6c0,0-4.5,0.6-8.2-0.6c-23.2-7-38.8-0.3-38.8-0.3
			s18.5-8.4,38.9-1.9c4.5,1.4,11.4-0.5,17.5-3.7c0,0-2.5-1.5-3.4-2.3c-2.7,1.4-5.5,2.4-8.5,2.6c-12.2-21.2-32.7-15.8-38.7-12.6
			C693.2,319.3,688.6,333.6,688.6,333.6z"/>
	</g>
</g>
<g>
	<g>
		<path class="st3" d="M614.3,308.2c0,0,6.7-2.2,12.5-1.7c43,4.3,39.9-28.9,39.4-29.3c0,0-3.8,2.6-7.5,3.3
			c-23.8,4.5-34.5,17.7-34.5,17.7s12.5-16,33.5-19.7c4.6-0.8,9.9-5.8,13.8-11.3c0,0-2.9-0.2-4.1-0.4c-1.7,2.5-3.8,4.6-6.3,6.2
			c-20.7-13.1-36.3,1.1-40.2,6.8C611.7,293.3,614.3,308.2,614.3,308.2z"/>
	</g>
</g>
<g>
	<g>
		<path class="st3" d="M763.5,463.1c0,0,6.4,3,10.2,7.4c28.3,32.6,48.9,6.4,48.8,5.8c0,0-4.5-0.7-7.7-2.8
			c-20.4-13.1-37.3-10.8-37.3-10.8s20.1-3.1,37.9,8.7c3.9,2.6,11.1,2.6,17.8,1.2c0,0-2-2.1-2.7-3.1c-2.9,0.6-5.9,0.8-8.9,0.2
			c-6-23.7-27.1-24.1-33.9-22.6C771.8,450.6,763.5,463.1,763.5,463.1z"/>
	</g>
</g>
<g>
	<path class="st0" d="M614.6,507.1l17-1.1c0,0,0.1,0,0.1,0c12.1-1,23-7.6,29.8-17.9l13.4-20.2c11.7-17.6,16.2-38.9,12.8-59.9
		c-0.7-4.1-2.7-7.9-5.8-10.7c-3.1-2.8-7-4.4-11.1-4.6c-20.8-1-40.8,6.1-56.4,20.2l-18,16.1c-9.2,8.2-14.2,20.1-13.7,32.5
		c0,0,0,0.1,0,0.1l1,17.4c0.4,6.8-2.1,13.5-6.7,18.4L436.7,645.4c-3.8,4-5.7,9.5-5.5,15.5c0.3,6.6,3.2,13.1,7.9,17.3
		c4.2,3.8,10.1,6,15.9,6c0.6,0,1.2,0,1.9-0.1c5.8-0.5,10.9-3.1,14.4-7.4l126.3-160.6C601.8,510.9,608,507.6,614.6,507.1z
		 M590.8,510.5L464.5,671.1c-1.9,2.4-4.9,3.9-8.4,4.2c-4.1,0.3-8.3-1.1-11.3-3.8c-3-2.7-4.8-6.8-5-11c-0.1-3.6,0.9-6.8,3-9
		l140.4-147.9c6.3-6.7,9.6-15.8,9.1-25.1l-1-17.4c-0.3-9.8,3.6-19,10.8-25.5l18-16.1c13.9-12.5,31.8-18.9,50.3-18
		c2.1,0.1,4.1,1,5.7,2.4c1.6,1.4,2.6,3.4,3,5.5c3.1,18.7-0.9,37.7-11.4,53.4l-13.4,20.2c-5.4,8.1-13.9,13.2-23.4,14l-17,1.1
		C605,498.9,596.5,503.3,590.8,510.5z"/>
	<path class="st0" d="M680.8,644.7l-94.1-87.9c-1.8-1.7-4.5-1.5-6.1,0.3c-1.6,1.8-1.5,4.6,0.3,6.3l94.1,87.9
		c2.2,2.1,3.5,5.2,3.6,8.8c0.1,4.2-1.5,8.5-4.3,11.3c-2.8,2.9-6.9,4.5-11,4.4c-3.5-0.1-6.5-1.4-8.6-3.6l-83.9-94.4
		c-1.6-1.8-4.4-1.9-6.1-0.3c-1.8,1.7-1.9,4.5-0.3,6.3l83.9,94.4c3.7,4.1,8.9,6.4,14.8,6.5c0.2,0,0.3,0,0.5,0c6.3,0,12.6-2.6,16.9-7
		c4.4-4.5,7-11.2,6.9-17.8C687.1,653.8,684.9,648.5,680.8,644.7z"/>
	<path class="st0" d="M451.8,506.3c7.2,6.8,16.5,10.7,26.3,10.9c0,0,0.1,1.5,0.1,1.5h17c0,0,13,1.5,17.5,6.5l7.5,8.4
		c0.9,1,2,1.5,3.2,1.5c1,0,2.1-0.4,2.9-1.2c1.8-1.7,1.9-4.5,0.3-6.3l-7.5-8.5c-6.1-6.8-14.8-10.8-23.9-10.5h-17
		c-7.5-0.5-14.8-3.5-20.4-8.7l-49.4-60.2c-0.5-0.6-0.5-1.5,0.1-2.1c0.4-0.4,0.8-0.4,1.1-0.4c0.2,0,0.7,0.1,1.1,0.4l44.9,46.1
		c4.4,4.6,11.7,4.6,16.1,0l5.3-5.4v0l9.4-9.6c0,0,0,0,0,0l0,0l5.3-5.4c4.4-4.6,4.4-12,0-16.5l-44.9-46.1c-0.6-0.6-0.6-1.6,0-2.2
		c0.6-0.6,1.4-0.6,2-0.1l58.7,50.6c5.1,5.7,8,13.1,8.5,20.9v17.4c-0.2,9.3,3.6,18.2,10.3,24.5l8,7.5c1.8,1.7,4.5,1.5,6.1-0.3
		c1.6-1.8,1.5-4.6-0.3-6.3l-8-7.5c-4.9-4.6-11.2-18-11.2-18l4.9-17.5v-0.1c-1.7-10-5.5-19.6-12.1-26.9c-0.1-0.1-0.3-0.3-0.4-0.4
		l-58.9-50.8c-4.1-3.5-10-3.3-13.7,0.6c-4,4.1-4,10.7,0,14.8l44.9,46.1c1.1,1.1,1.1,2.9,0,3.9l-2.2,2.3l-50.1-51.4
		c-1.7-1.7-4.4-1.7-6.1,0c-1.7,1.7-1.7,4.6,0,6.3l50.1,51.4l-3.2,3.3l-50.1-51.4c-1.7-1.7-4.4-1.7-6.1,0c-1.7,1.7-1.7,4.6,0,6.3
		l50.1,51.4l-2.2,2.3c-1.1,1.1-2.8,1.1-3.8,0l-44.9-46.1c-1.9-2-4.5-3.1-7.2-3.1s-5.3,1.1-7.2,3.1c-3.8,3.9-4,9.9-0.6,14.1
		l49.6,60.4C451.6,506,451.7,506.2,451.8,506.3z"/>
</g>
<g>
	<g>
		<g>
			<g>
				<circle class="st2" cx="153.4" cy="502.4" r="14.4"/>
			</g>
		</g>
	</g>
</g>
<g>
	<g>
		<g>
			<g>
				<circle class="st2" cx="934.8" cy="502.4" r="14.4"/>
			</g>
		</g>
	</g>
</g>
<g>
</g>
<g>
	<g>
		<path class="st2" d="M329.3,169.2c0.2,0.5,0.4,1,0.6,1.5c-1.3,1.1-2.4,2.6-3.2,4.7c-0.8,2.1-1.2,4.7-1.2,7.8
			c-0.1,17.2,0.4,34.2,1.5,51.2c-0.6,0.2-1.5,0.6-2.8,1.2c-1.2,0.6-2.1,1-2.7,1.4c-14.2-12.4-29.1-24.3-44.6-35.6
			c-1.6-1.2-3.1-1.9-4.5-2.1c-1.4-0.2-2.5-0.1-3.5,0.4c-0.3-0.5-0.5-1-0.8-1.5c3.5-1.8,8-4.1,13.4-6.8c6-3.1,10.4-5.4,13.3-6.9
			c0.2,0.5,0.5,1,0.7,1.5c-2.2,1.2-3.7,2.2-4.4,3c-0.8,0.8-0.9,1.7-0.4,2.8c0.4,0.8,1.3,1.8,2.8,3c10.6,8.6,20.9,17.4,30.8,26.5
			c-0.5-9.9-0.7-19.8-0.8-29.8c-0.1-4.6-0.6-8.1-1.5-10.4c-0.9-2-2.1-3.2-3.8-3.6c-1.7-0.4-3.8-0.1-6.2,0.9c-0.2-0.5-0.4-1-0.7-1.5
			c4.1-1.6,7.9-3.2,11.3-4.6C325.3,171.1,327.5,170.1,329.3,169.2z"/>
		<path class="st2" d="M398.8,207.2c-3.8,1-10.2,2.8-19,5.7c-12,4-20.8,7.5-26.6,10c-0.2-0.5-0.4-1-0.6-1.5c1.8-0.8,3-1.5,3.7-2.2
			c0.7-0.6,1.1-1.5,1-2.4c0-1-0.4-2.5-1.2-4.4c-4.9-12.8-9.8-25.6-14.8-38.4c-0.8-2-1.5-3.3-2.1-4.1c-0.7-0.7-1.5-1.1-2.6-1
			c-1.1,0.1-2.6,0.4-4.6,1.1c-0.2-0.5-0.4-1-0.6-1.5c6.6-2.4,16.5-6.2,29.8-10.7c9-3,15.4-5,19.2-6.3c0.9,4.5,1.8,8.5,2.9,12
			c0.7,2.3,1.3,4.1,1.9,5.3c-0.7,0.2-1.4,0.4-2.1,0.6c-2.6-5.4-5.5-8.9-8.5-10.4c-3.1-1.5-6.8-1.6-11.2-0.2
			c-1.3,0.4-2.5,0.8-3.8,1.3c-1.9,0.6-3.2,1.3-4,1.8c-0.8,0.6-1.2,1.3-1.2,2.1c0,0.9,0.2,2.1,0.8,3.8c2.3,6.5,4.6,12.9,6.9,19.4
			c0.9-0.3,1.9-0.7,2.8-1c3.1-1.1,5.1-2.9,6-5.5c0.9-2.6,1.3-5.4,1-8.5c0.7-0.2,1.4-0.4,2.1-0.7c0.5,2.3,1.2,4.8,2.1,7.5
			c0.4,1.3,0.8,2.5,1.2,3.8c0.9,2.7,2.2,6.4,4.1,11.1c-0.7,0.2-1.3,0.4-2,0.6c-3.4-6.6-8.1-8.9-14-6.9c-0.9,0.3-1.9,0.6-2.8,1
			c2.3,6.6,4.6,13.1,7,19.7c0.6,1.7,1.2,2.8,1.7,3.5c0.5,0.7,1.2,1,2.1,1c0.9,0,2.1-0.3,3.9-0.9c1.4-0.5,2.7-0.9,4.1-1.4
			c3.9-1.3,6.7-3.6,8.3-6.9c1.6-3.3,2.1-8.2,1.3-14.6c0.7-0.2,1.3-0.4,2-0.6c0.3,1.8,0.9,4.1,1.7,6.8
			C396.1,200.1,397.5,204.1,398.8,207.2z"/>
		<path class="st2" d="M434.3,138.5c2.9,0.4,5.7,1.2,8.6,2.5c0.8,0.4,1.5,0.5,2,0.4c0.6-0.1,1.1-0.6,1.3-1.4
			c0.2-0.9,0.3-2.1,0.2-3.9c0.7-0.1,1.5-0.2,2.2-0.4c0.4,3.8,1.3,10.4,2.9,19.9c-0.7,0.1-1.4,0.2-2.1,0.4c-1.1-3.6-2.4-6.5-3.7-8.6
			c-1.4-2.1-3.3-3.8-5.8-4.9c-1.7-1-3.8-1.6-6.1-1.9c-2.3-0.3-4.7-0.2-7,0.3c-4.4,0.9-7.8,3-10.1,6.2c-2.3,3.2-3.6,7.1-3.9,11.6
			c-0.3,4.5,0.1,9.3,1.4,14.3c4.6,18.6,12.3,26.5,23,24.2c2.5-0.5,4.4-1.5,5.7-2.9c0.6-0.6,1.1-1.3,1.2-2c0.2-0.7,0.2-1.6,0-2.6
			c-0.5-2.7-1-5.3-1.5-8c-0.5-2.6-1.1-4.4-1.8-5.4c-0.7-1.1-1.7-1.7-3-1.9c-1.3-0.2-3.3-0.1-5.9,0.4c-0.1-0.5-0.2-1.1-0.3-1.6
			c3.7-0.6,8.8-1.6,15.2-2.7c5.3-1,9.3-1.7,11.9-2.3c0.1,0.5,0.2,1.1,0.3,1.6c-1.2,0.3-2,0.7-2.5,1.1c-0.5,0.4-0.7,1.1-0.8,2.1
			c-0.1,1,0.1,2.5,0.4,4.6c0.9,5.4,1.8,10.8,2.7,16.2c-0.6,0.1-1.1,0.2-1.7,0.3c-0.3-1.1-0.7-2.2-1.3-3.1c-0.6-0.9-1.3-1.3-2-1.2
			c-1,0.2-2.4,1-4.3,2.5c-4.4,3.6-8.8,5.9-13.1,6.8c-9.7,2.1-17.7,1.4-24.2-2.3c-6.5-3.7-11.1-10-13.7-19.1
			c-1.7-6-1.7-11.6-0.1-16.9c1.6-5.3,4.6-9.9,9.1-13.6c4.5-3.8,10.1-6.4,16.7-7.8C428.1,138.3,431.5,138.1,434.3,138.5z"/>
		<path class="st2" d="M519.3,184.2c1,0.8,2,1.2,2.9,1.2c0,0.6,0,1.1,0.1,1.7c-3.4,0-7.8,0.1-13.1,0.4c-5.8,0.4-10.2,0.8-13,1.3
			c0-0.6-0.1-1.1-0.1-1.7c2.2-0.3,3.7-0.7,4.6-1.2c0.9-0.5,1.3-1.3,1.2-2.3c-0.1-1-0.5-2.3-1.4-3.9c-2.1-4.4-4.3-8.7-6.5-13.1
			c-6.5,0.6-13,1.3-19.5,2.1c-0.5,2-1.1,4-1.6,6c-1.1,4.2-1.5,7.3-1.2,9.5c0.3,2,1.1,3.3,2.5,4c1.4,0.6,3.3,0.8,5.9,0.6
			c0.1,0.5,0.1,1.1,0.2,1.6c-3.9,0.3-7.4,0.7-10.6,1.2c-2.6,0.4-4.8,0.8-6.4,1.2c-0.1-0.5-0.2-1.1-0.3-1.6c2.7-0.9,4.7-4.2,6.1-9.7
			c4.3-17,9.3-33.9,14.9-50.7c0.7,0,1.8-0.1,3.3-0.3c1.5-0.1,2.6-0.3,3.2-0.4c9.3,16.5,17.9,33.3,25.8,50.2
			C517.3,182.1,518.3,183.4,519.3,184.2z M493.2,165c-3.6-7.2-7.4-14.3-11.3-21.4c-2.4,7.8-4.7,15.6-6.9,23.4
			C481.1,166.2,487.1,165.6,493.2,165z"/>
		<path class="st2" d="M585.5,131.2c-2.1,0.1-3.7,0.5-4.7,1.1c-1,0.6-1.8,1.6-2.2,3c-0.4,1.4-0.7,3.5-0.9,6.3
			c-1,15.4-2,30.8-2.9,46.2c-0.7-0.1-1.4-0.1-2.1-0.2c-0.8,0-1.5,0-2.3,0c-11.6-15.9-24.3-31.4-38.1-46.3
			c0.2,10.6,0.4,21.2,0.6,31.9c0.1,3.3,0.3,5.7,0.7,7.2c0.4,1.5,1.1,2.6,2.3,3.3c1.2,0.7,3,1.1,5.6,1.4c0,0.6,0,1.1,0,1.7
			c-2.2-0.2-5.3-0.2-9.3-0.1c-3.2,0.1-5.6,0.2-7.5,0.5c0-0.6,0-1.1-0.1-1.7c1.9-0.3,3.3-0.9,4.1-1.5c0.9-0.7,1.5-1.8,1.7-3.2
			c0.3-1.4,0.4-3.6,0.3-6.4c-0.3-12.4-0.5-24.9-0.8-37.3c0-2.1-0.3-3.6-0.6-4.6c-0.4-0.9-1.1-1.6-2-1.9c-1-0.3-2.5-0.5-4.6-0.5
			c0-0.6,0-1.1-0.1-1.7c2,0.1,4.8,0.1,8.3,0c3.2-0.1,5.9-0.2,8.2-0.4c12.4,13.1,24,26.7,34.7,40.5c0.5-8.6,1-17.3,1.6-25.9
			c0.2-3.3,0.2-5.7-0.1-7.2c-0.3-1.5-1-2.7-2.3-3.5c-1.2-0.8-3.3-1.4-6.1-1.8c0-0.6,0-1.1,0.1-1.7c2.5,0.3,5.9,0.5,10.3,0.8
			c3.6,0.2,6.3,0.3,8.3,0.3C585.6,130.1,585.5,130.6,585.5,131.2z"/>
		<path class="st2" d="M633.9,194.9c-3.8-0.9-10.3-2.1-19.4-3.4c-12.4-1.8-21.7-2.6-27.9-3c0-0.6,0.1-1.1,0.1-1.7
			c1.9,0.1,3.3,0,4.2-0.3c0.9-0.2,1.6-0.8,2-1.7c0.4-0.9,0.7-2.4,0.9-4.5c1.4-13.6,2.7-27.3,4.1-40.9c0.2-2.1,0.2-3.6-0.1-4.6
			c-0.3-1-0.9-1.7-1.8-2.1c-1-0.4-2.5-0.8-4.6-1.1c0-0.6,0.1-1.1,0.1-1.7c6.9,0.8,17.2,1.8,31,3.8c9.3,1.3,15.9,2.4,19.9,2.9
			c-1.3,4.4-2.2,8.4-2.8,12c-0.4,2.4-0.7,4.3-0.7,5.6c-0.7-0.1-1.4-0.2-2.1-0.4c0.1-6-0.9-10.4-2.9-13.1c-2.1-2.7-5.3-4.5-9.8-5.1
			c-1.3-0.2-2.6-0.4-3.9-0.6c-2-0.3-3.4-0.3-4.3-0.2c-0.9,0.2-1.6,0.6-2,1.4c-0.4,0.8-0.7,2-1,3.8c-0.9,6.8-1.7,13.6-2.6,20.4
			c1,0.1,1.9,0.2,2.9,0.4c3.2,0.4,5.8-0.3,7.7-2.2c2-1.9,3.5-4.3,4.7-7.1c0.7,0.1,1.4,0.2,2.1,0.3c-0.5,2.3-1,4.8-1.5,7.7
			c-0.2,1.3-0.4,2.6-0.6,3.9c-0.4,2.8-0.9,6.7-1.3,11.7c-0.7-0.1-1.4-0.2-2-0.3c-0.1-7.4-3.2-11.6-9.3-12.4c-1-0.1-1.9-0.3-2.9-0.4
			c-0.9,6.9-1.8,13.8-2.6,20.7c-0.2,1.8-0.2,3.1-0.1,3.9c0.2,0.8,0.7,1.4,1.4,1.8c0.8,0.4,2,0.7,3.8,0.9c1.4,0.2,2.8,0.4,4.2,0.6
			c4,0.6,7.5-0.2,10.4-2.4c2.9-2.2,5.5-6.4,7.7-12.5c0.7,0.1,1.4,0.2,2,0.4c-0.5,1.8-1,4-1.5,6.8
			C634.6,187.4,634.1,191.6,633.9,194.9z"/>
		<path class="st2" d="M692.3,206.1c0.7,1.1,1.5,1.8,2.4,2.1c-0.2,0.5-0.3,1.1-0.5,1.6c-3.3-1.2-7.5-2.6-12.6-4
			c-5.7-1.6-9.9-2.6-12.8-3.2c0.1-0.5,0.3-1.1,0.4-1.6c2.2,0.4,3.7,0.6,4.7,0.4c1-0.2,1.6-0.7,1.9-1.8c0.3-1,0.3-2.3,0-4.1
			c-0.5-4.8-1.1-9.7-1.7-14.5c-6.4-1.6-12.7-3.1-19.1-4.5c-1.2,1.7-2.3,3.4-3.5,5.1c-2.5,3.6-3.9,6.4-4.3,8.5c-0.4,2-0.1,3.5,1,4.6
			c1.1,1.1,2.9,1.9,5.3,2.6c-0.1,0.5-0.2,1.1-0.4,1.6c-3.8-1-7.3-1.8-10.4-2.5c-2.6-0.5-4.8-0.9-6.5-1c0.1-0.5,0.2-1.1,0.3-1.6
			c2.9,0,5.9-2.3,9-7.1c9.8-14.5,20.1-28.8,31.1-42.8c0.7,0.2,1.8,0.5,3.3,0.9c1.5,0.4,2.6,0.6,3.2,0.7c3.3,18.7,5.8,37.4,7.7,56
			C691.2,203.5,691.6,205,692.3,206.1z M674,179.2c-1.1-8-2.2-16-3.5-23.9c-4.9,6.5-9.7,13.1-14.3,19.7
			C662.1,176.3,668.1,177.7,674,179.2z"/>
		<path class="st2" d="M744.8,164.9c1.7,1.2,3.3,2.7,4.8,4.5c0.5,0.6,1,1.1,1.5,1.5c0.4,0.4,0.8,0.7,1.2,0.8
			c0.5,0.2,1.1,0.1,1.6-0.3c0.5-0.4,1.1-1.2,1.8-2.3c0.7,0.3,1.4,0.6,2.1,0.8c-1.7,3.3-4.2,9.1-7.6,17.3c-0.7-0.3-1.3-0.5-2-0.8
			c0.9-2.9,1.2-5.8,1-8.8c-0.2-3-1.1-5.7-2.8-8.2c-1.6-2.4-4-4.2-7-5.4c-3-1.1-5.7-1.3-8-0.5c-2.4,0.8-4,2.4-4.8,4.9
			c-0.6,1.8-0.7,3.6-0.3,5.2c0.4,1.7,1.2,3.3,2.4,5c1.2,1.7,3.1,4.1,5.6,7.2c0.7,0.9,1.4,1.8,2.1,2.8c2.6,3.3,4.6,6.1,6,8.4
			c1.3,2.3,2.2,4.6,2.6,7.1c0.4,2.5,0,5-1,7.6c-1.4,3.3-3.4,5.6-6.1,7.1c-2.7,1.5-5.8,2.2-9.3,2.1c-3.5-0.1-7.1-0.8-10.9-2.2
			c-3-1.1-5.5-2.3-7.3-3.5c-1.8-1.2-3.5-2.6-4.9-4c-1-1.1-1.8-1.8-2.5-2c-0.5-0.2-1,0-1.4,0.4c-0.5,0.5-1,1.3-1.5,2.4
			c-0.6-0.2-1.3-0.4-1.9-0.6c1.3-3.2,3.7-10.3,7.2-21.2c0.7,0.2,1.3,0.4,2,0.6c-1.5,6-1.7,11.3-0.5,15.7c1.2,4.5,4.2,7.5,9,9.3
			c3,1.1,5.7,1.2,8.1,0.4c2.5-0.8,4.3-2.5,5.3-5.3c1.1-2.9,1.1-5.8-0.2-8.6c-1.2-2.8-3.6-6.4-7.2-10.6c-2.7-3.3-4.9-6-6.5-8.2
			c-1.6-2.2-2.7-4.6-3.4-7.1c-0.7-2.5-0.6-5.1,0.3-7.9c1-3.2,2.8-5.5,5.4-7.1c2.6-1.6,5.6-2.4,9.1-2.3c3.5,0,7.1,0.7,10.8,2.1
			C740.7,162.4,743.1,163.7,744.8,164.9z"/>
		<path class="st2" d="M788.1,249.7c-3.4-2.1-9.3-5.4-17.8-9.6c-11.5-5.7-20.2-9.5-26.1-11.9c0.2-0.5,0.4-1,0.7-1.5
			c1.8,0.7,3.2,1,4.2,1.1c1,0.1,1.8-0.3,2.5-1c0.7-0.7,1.4-2,2.3-4c5.6-12.5,11.2-25.1,16.8-37.6c0.9-1.9,1.3-3.4,1.4-4.4
			c0.1-1-0.3-1.9-1.1-2.6c-0.8-0.7-2.1-1.5-4.1-2.5c0.2-0.5,0.4-1,0.7-1.5c6.4,2.9,16.1,7.3,28.9,13.7c8.6,4.3,14.7,7.5,18.4,9.3
			c-2.6,3.8-4.8,7.3-6.5,10.5c-1.2,2.1-2,3.8-2.4,5.1c-0.6-0.4-1.3-0.7-1.9-1c2-5.7,2.4-10.1,1.3-13.4c-1.1-3.3-3.8-6-7.9-8.1
			c-1.2-0.6-2.4-1.2-3.6-1.8c-1.8-0.9-3.2-1.4-4.1-1.6c-0.9-0.1-1.7,0.1-2.4,0.7c-0.6,0.6-1.3,1.7-2.1,3.3c-3,6.2-5.9,12.4-8.9,18.6
			c0.9,0.4,1.8,0.9,2.7,1.3c3,1.4,5.7,1.6,8.2,0.4c2.5-1.2,4.8-2.9,6.7-5.2c0.7,0.3,1.3,0.7,2,1c-1.2,2-2.5,4.2-3.8,6.8
			c-0.6,1.2-1.2,2.4-1.8,3.5c-1.3,2.5-2.9,6.1-4.9,10.7c-0.6-0.3-1.2-0.6-1.9-1c2.2-7.1,0.5-12.1-5.2-14.8c-0.9-0.4-1.8-0.9-2.7-1.3
			c-3,6.3-6,12.6-9,18.9c-0.8,1.6-1.2,2.8-1.3,3.7c-0.1,0.9,0.2,1.6,0.8,2.2c0.6,0.6,1.8,1.3,3.4,2.1c1.3,0.6,2.6,1.3,3.9,1.9
			c3.7,1.9,7.4,2.3,10.9,1.1c3.5-1.2,7.3-4.3,11.4-9.4c0.6,0.3,1.2,0.7,1.9,1c-1,1.5-2.2,3.5-3.6,6
			C791.1,242.9,789.3,246.6,788.1,249.7z"/>
	</g>
</g>
<g>
	<g>
		<path class="st4" d="M282.8,872.5c1.5-4.9,4.8-13.4,10.1-25.3c5.6-12.8,9-20.4,10.1-22.8c0.7-0.6,1.5-0.6,2.4,0.1
			c0.7,0.5-0.1,3.5-2.3,9c-2.2,5.6-4.8,11.8-7.9,18.7c-1.6,3.7-3.3,7.5-4.9,11.3c3.7-4.1,6.6-7.1,8.5-9.1c4.3-4.7,7.7-8.6,10.4-11.8
			c2.6-3.2,4.9-6.3,6.9-9.4c1.1-0.4,2.1-0.3,3,0.3c0.3,0.5,0.6,1,0.9,1.5c-2,2.4-3.9,4.8-5.9,7.2c-1.7,2.2-5,6.2-9.9,11.9
			c-1,1.1-2,2.3-3,3.4c-2.7,3-5.2,5.9-7.7,8.5c-3.5,3.9-6.1,6.4-7.8,7.7c-0.9,0.7-1.4,0.9-1.7,0.8
			C283.3,873.8,282.9,873.2,282.8,872.5z"/>
		<path class="st4" d="M303,884.9c-0.7-0.7-0.8-1.5-0.2-2.4c6.8-11.3,13.6-22.6,20.4-34c0.4-0.7,0.9-1.7,1.4-3.2
			c0.4-1.4,0.9-2.5,1.3-3.3c0-0.1,0.1-0.1,0.1-0.2c1.4-0.6,2.3-1,2.9-1.1c0.6,0.4,1.4,0.7,2.5,1.2c1,0.4,1.8,0.8,2.5,1.2
			c0.7,0.4,1.2,1,1.7,1.7c0.4,0.7,0.5,1.4,0.2,1.9c-0.7,1.2-2,1.2-4,0.1c-0.3-0.2-0.6-0.4-0.9-0.5c-0.2-0.2-0.5-0.4-0.9-0.6
			c-0.4-0.2-0.6-0.3-0.7-0.4c-0.8,1.3-1.6,3-2.6,5c-0.3,0.6-0.6,1.1-0.8,1.7c-0.6,1.1-1.2,2.2-1.8,3.3c-0.4,0.7-1.2,1.8-2.2,3.3
			c-0.7,1.1-1.4,2.1-2.1,3.2c0.4,0.1,0.7,0.3,1.1,0.4c1,0.3,1.9,0.6,2.4,0.9c0.5,0.3,0.9,0.7,1.1,1.3c0.2,0.6,0.2,1.1,0,1.5
			c-0.3,0.5-0.7,0.8-1.2,1c-0.6,0.2-1.1,0.1-1.6-0.2c-0.3-0.2-0.5-0.4-0.8-0.5c-0.3-0.2-0.6-0.3-0.9-0.5c-0.7-0.4-1.2-0.5-1.7-0.4
			c-3.6,6.1-7.1,12.1-10.7,18.2c1.4,0.7,2.7,1.4,4.1,2.2c2.7,1.6,3.8,2.8,3.2,3.9c0,0.1-0.1,0.2-0.1,0.2c-0.6,0.3-1.3,0.4-2.2,0.3
			c-0.9-0.1-1.8-0.4-2.6-0.7c-0.8-0.4-1.6-0.9-2.4-1.3c-0.7-0.4-1.5-0.9-2.2-1.3C304.3,886,303.5,885.5,303,884.9z"/>
		<path class="st4" d="M326.7,897.5c-0.9-1.7-1.3-4-1.3-7c0.1-1.9,0.7-4.4,1.7-7.4c0.9-2.4,1.9-4.6,2.9-6.6c0.2-0.5,0.7-1.5,1.4-2.7
			c0.4-0.7,0.7-1.4,1.1-2c0.4-0.8,0.9-1.6,1.3-2.4c0.9-1.7,2.1-3.7,3.5-6.1c1.3-1.9,2.8-3.8,4.4-5.7c1.7-1.8,3.5-3.1,5.3-4
			c1.9-0.9,3.9-1.3,6.1-1c1.2,0.3,2.3,0.7,3.3,1.1c1.8,0.9,2.5,1.9,1.9,3.1c-0.2,0.4-0.6,0.7-1,0.8c-0.5,0.1-1,0-1.5-0.2
			c-0.2-0.1-0.5-0.3-0.8-0.6c-0.3-0.2-0.6-0.4-0.9-0.6c-0.8-0.4-1.7-0.6-2.6-0.4c-0.9,0.1-1.8,0.5-2.7,1.2c-2,1.4-3.8,3.2-5.4,5.3
			c-2,2.6-3.5,4.9-4.7,6.9c-1,1.8-2.1,3.6-3.2,5.7c-0.3,0.5-0.6,1.1-0.9,1.6c-0.3,0.5-0.7,1.2-1.2,2.1c-1.1,2.1-2,4.1-2.8,6.2
			c-1,2.4-1.6,4.7-1.6,6.9c-0.2,2.3,0.4,4.3,1.7,6c0.6,0.8,1.6,1.6,2.8,2.2c2.2,1.1,4.4,1.1,6.7,0.1c0.6-1.5,1.2-2.9,1.7-4.4
			c0.5-1.5,0.6-2.5,0.5-3.2c0,0-0.2-0.1-0.3-0.1c-0.2-0.1-0.4-0.2-0.8-0.3c-0.6-0.2-1.2-0.5-1.8-0.7c-1.6-0.8-2.2-1.8-1.6-3
			c0.2-0.4,0.6-0.6,1.2-0.6c0.6,0,1.4,0.1,2.2,0.4c1.5,0.4,2.7,0.8,3.8,1.3c1,0.5,1.6,1.1,1.8,2c0.2,0.9,0.1,1.8-0.3,2.7
			c-0.6,1.4-1.3,3.3-1.9,5.9c-0.6,2.5-1.2,4.5-1.9,5.8c-0.2,0.5-0.6,0.8-1.1,0.9c-0.5,0.2-1,0.1-1.5-0.1c-1.2-0.6-1.9-1.4-1.9-2.5
			c0,0,0,0,0-0.1c-0.7,0-1.3-0.1-2-0.1c-1.8,0-3.3-0.3-4.3-0.8C329.7,901.6,327.8,899.8,326.7,897.5z"/>
		<path class="st4" d="M362.3,914.3c-0.3-0.4-0.3-0.9,0-1.5c1.2-2.7,2.3-5.5,3.5-8.2c-0.5-0.6-1.6-1.5-3.2-2.5
			c-1.6-1.1-3.2-2-4.8-2.8c-0.9,0.6-1.8,1.5-2.6,2.7c-0.3,0.4-0.6,0.7-0.9,1.1c-0.2,0.3-0.6,0.8-1.3,1.7c-0.7,0.9-1.4,1.6-2,2.2
			c-0.6,0.6-1.2,1-1.7,1.3c-1.9-0.9-2.8-1.8-2.7-2.8c0.9-0.4,2.4-2.1,4.5-5c2.5-3.4,5.1-6.8,7.6-10.3c3.5-4.9,6.5-9.1,9-12.5
			c2.6-3.4,4.9-6.3,6.9-8.4c2.3-2.4,3.9-3.4,4.8-3c0.9,0.4,1.6,0.9,1.9,1.4c-0.7,1.7-2,5.9-3.8,12.7c-1.7,6.7-3,11.2-3.9,13.5
			c-0.9,2.2-2,5.5-3.1,9.9c-1.2,4.5-2.4,7.9-3.4,10.5c-0.6,1.4-1.7,1.8-3.4,1.1C363.1,915.1,362.6,914.7,362.3,914.3z M367.2,900.7
			c0.6-1.9,1.3-4.3,2.2-7.2c2.9-9.9,4.9-15.9,5.8-18.1c0.1-0.2,0.1-0.3,0.2-0.5c-0.6,0.2-2.1,1.8-4.3,4.8c-2.3,3-4.6,6.3-7,9.8
			c-2.4,3.5-3.9,5.9-4.5,7.1c1.8,1.4,3.9,2.6,6.2,3.6C366.1,900.4,366.6,900.6,367.2,900.7z"/>
		<path class="st4" d="M392.5,912.4c0.1-11.6,0.7-22.1,1.5-31.6c-2.6,7-5.2,14-7.8,20.9c-0.7,1.8-1.6,4.9-2.8,9.4
			c-1.4,4.8-2.3,7.9-2.8,9.3c-0.1,0.4-0.5,0.6-1.2,0.7c-0.7,0.1-1.4,0-2.1-0.3c-1.1-0.4-1.5-1-1.2-1.6c0.3-0.6,0.6-1.2,0.9-1.8
			c0.6-1.3,1-2.2,1.2-2.6c0.9-2.3,2.1-5.9,3.6-10.9c1.6-5.1,2.6-8.1,3-9.2c1-2.7,2.1-5.4,3.1-8.1c0.5-1.3,1.3-3.2,2.5-5.8
			c1-2.2,1.9-4.1,2.5-5.8c0-0.1,0.1-0.3,0.1-0.4c0.8-2.1,1.7-3,2.7-2.6c0.6,0.2,1,1.4,1.2,3.7c0.4,3.6,0.3,9.8-0.1,18.7
			c-0.3,5.1-0.7,11.7-1.2,19.6c0-0.2-0.1,1.4-0.3,4.9c0,0.1,0,0.2,0,0.3c1.4-4.2,2.7-7.9,4-11.2c1.3-3.7,2.6-7.5,3.9-11.2
			c2.2-6.4,4.3-12.7,6.5-19.1c0.5-1,1.5-1.3,2.7-0.9c1.2,0.4,1.6,1.5,1,3.1c0,0.1-0.1,0.3-0.1,0.4c-0.4,0.4-0.8,1-1,1.7
			c-0.9,2.6-2.2,6.6-4.1,11.9c-1.9,5.3-3.3,9.3-4.2,12c-2.2,6.6-4.3,13.2-6.5,19.8c-0.2,0.7-0.7,1.3-1.3,1.8
			c-0.6,0.5-1.3,0.6-1.9,0.4C393.2,927.5,392.5,922.3,392.5,912.4z"/>
		<path class="st4" d="M443,941.3c-0.2-0.5-0.2-1.2-0.1-2c0.7-3.3,1.4-6.6,2.1-9.9c0.1-0.9,0.4-2.3,0.8-4.2c0.8-4.2,1.8-8.8,2.9-14
			c0.2-1.1,0.5-2.3,0.7-3.4c-0.9,2-2.3,4.9-4.3,8.5c-2,3.7-3.5,6.8-4.6,9.3c0,0.1-0.1,0.3-0.1,0.4c-0.2,0.4-0.3,0.8-0.5,1.2
			c-0.3,1-0.8,1.9-1.5,2.8c-0.8,0.9-1.7,1.3-2.8,1c-1.9-0.4-2.3-2.8-1.3-6.9c0.6-2.3,0.9-4.8,1-7.6c0.1-2.8,0.1-6.2-0.1-10.3
			c-0.1-2.7-0.2-5.3-0.3-8c-0.7,2.6-1.5,5.3-2.2,7.9c-0.6,2.4-1.7,6.9-3.2,13.7c-0.3,1.5-0.7,3-1,4.5c-0.7,3-1.5,6.1-2.2,9.1
			c-0.2,0.9-0.8,1.7-1.8,2.2c-1.3-0.3-2.1-0.9-2.4-1.7c-0.3-0.8-0.3-1.9,0.1-3.2c0.5-1.8,1.1-3.6,1.6-5.4c0.8-2.3,1.3-4.1,1.7-5.3
			c1.1-4.3,2.2-8.5,3.3-12.8c1.1-4.3,2.2-8.5,3.3-12.8c0.5-1.9,1.3-4.7,2.4-8.5c0.7-0.2,1.4-0.4,2.2-0.6c0.4,0.1,0.7,0.5,0.9,1.1
			c0.3,0.6,0.5,1.4,0.7,2.5c0.5,3,0.6,8.9,0.6,17.6c0,1.2,0,2.2-0.1,3c0,2.7-0.1,4.8-0.1,6.1c0,1.8-0.1,3.6-0.1,5.4
			c0.4-0.7,0.7-1.4,1.1-2.1c0.9-1.7,1.8-3.4,2.7-5.1c1.5-3,2.8-5.6,3.9-7.9c1.1-2.3,2.1-4.8,3.3-7.4c1.3-3.2,2.2-5.9,2.9-8.1
			c0-0.1,0.1-0.3,0.1-0.4c0.2-0.6,0.6-0.9,1.1-1.2c0.5-0.2,1.1-0.3,1.8-0.1c0.4,0.1,0.8,0.3,1,0.8c0.3,0.4,0.3,0.8,0.3,1.2
			c-1.1,5.3-2.6,13.4-4.4,24.1c-0.8,5.3-1.7,10.4-2.7,15.4c-0.4,2.3-0.9,5.2-1.6,8.6c-0.2,1-0.7,1.9-1.5,2.5
			c-0.8,0.7-1.6,0.9-2.4,0.7C443.6,942.1,443.2,941.8,443,941.3z"/>
		<path class="st4" d="M471.6,945.1c-0.4-0.3-0.5-0.8-0.4-1.4c0.5-2.9,0.9-5.9,1.4-8.8c-0.6-0.5-1.8-1.1-3.7-1.7
			c-1.8-0.6-3.5-1.1-5.2-1.5c-0.7,0.8-1.4,1.9-1.9,3.2c-0.2,0.4-0.4,0.9-0.6,1.3c-0.1,0.3-0.4,1-0.8,2c-0.5,1-0.9,1.9-1.4,2.6
			c-0.5,0.7-0.9,1.3-1.3,1.7c-2-0.4-3.1-1-3.2-2c0.7-0.6,1.8-2.6,3.2-5.9c1.6-3.9,3.2-7.9,4.8-11.8c2.2-5.6,4.1-10.4,5.7-14.4
			c1.6-4,3.2-7.2,4.7-9.9c1.6-2.9,2.9-4.3,3.9-4.1c1,0.2,1.7,0.5,2.2,0.9c-0.3,1.8-0.5,6.2-0.6,13.2c0,6.9-0.2,11.6-0.6,14
			c-0.4,2.4-0.6,5.8-0.7,10.4c-0.1,4.6-0.4,8.3-0.8,11c-0.2,1.5-1.2,2.2-3,1.9C472.5,945.7,471.9,945.4,471.6,945.1z M473.1,930.7
			c0.2-2,0.3-4.5,0.4-7.5c0.4-10.3,0.9-16.6,1.3-18.9c0-0.2,0.1-0.4,0.1-0.5c-0.6,0.4-1.6,2.3-3,5.8c-1.5,3.5-2.9,7.2-4.4,11.2
			c-1.5,4-2.4,6.6-2.6,8c2.1,0.9,4.3,1.6,6.7,2C472,930.7,472.5,930.7,473.1,930.7z"/>
		<path class="st4" d="M487,947.1c-0.7-0.5-1-1.1-1-1.8c1.3-0.8,2.2-3.4,2.7-7.7c0.3-2.6,0.5-6.3,0.6-11.3c0.1-4.8,0.3-8.5,0.6-11.2
			c0.2-1.2,0.4-2.5,0.6-3.7c0.2-1.1,0.4-2.3,0.5-3.7c0.2-1.3,0.1-2.9-0.1-4.9c-0.3-2.1-0.4-3.6-0.3-4.4c0.2-1.6,2.1-2.1,5.8-1.7
			c0.4,0,0.7,0.1,1.1,0.1c2.6,0.3,4.7,1.3,6.5,2.9c1.4,1.4,2.6,3.4,3.4,5.8c0.6,1.7,1,4,1.4,7c0.1,2.6,0.1,4.6,0,6
			c-0.1,0.7-0.1,1.5-0.2,2.2c-0.1,1.1-0.2,2.1-0.3,3.2c-0.1,0.2-0.2,0.4-0.2,0.5c0,0.4,0,0.6,0,0.8c0,0.2,0,0.4,0,0.7
			c-0.1,1.5-0.5,3.2-1.1,5.1c-0.7,2-1.5,4-2.6,6c-2.8,4.8-5.8,8.1-9,9.8c-1.9,1-3.8,1.4-5.7,1.2C488.6,948,487.7,947.6,487,947.1z
			 M497.4,940.4c1.7-1.8,3-3.9,4-6.2c1.8-4.3,2.9-8.7,3.3-13.3c0.2-2.4,0.2-5.1,0-8.1c-0.3-2.9-1.2-5.5-2.8-7.9
			c-0.7-1.2-1.7-2.1-2.9-2.9c-1.2-0.7-2.6-1.2-4.2-1.4c0,0,0,0,0,0.1c-0.5,4.1-0.9,10.2-1.2,18.5c-0.3,8.2-0.7,14.5-1.2,18.7
			c-0.2,2.1-0.5,4.3-0.7,6.4C493.9,943.5,495.8,942.2,497.4,940.4z"/>
		<path class="st4" d="M518,950.4c-0.9-0.3-1.3-0.9-1.3-2c0.7-13.2,1.5-26.4,2.2-39.6c0-0.8,0-1.9-0.2-3.5c-0.3-1.4-0.4-2.6-0.3-3.5
			c0-0.1,0-0.1,0-0.2c0.9-1.2,1.5-2,1.9-2.4c0.7,0,1.6,0,2.7-0.1c1-0.1,1.9-0.2,2.7-0.2c0.8,0,1.5,0.3,2.2,0.7c0.7,0.5,1,1,1,1.6
			c0,1.4-1.2,2-3.4,1.9c-0.3,0-0.7,0-1,0c-0.3-0.1-0.6-0.1-1-0.1c-0.4,0-0.7,0-0.8,0c-0.1,1.5-0.1,3.4,0,5.6c0,0.6,0,1.3,0.1,1.9
			c0,1.3,0,2.5,0,3.8c0,0.9-0.2,2.2-0.4,3.9c-0.1,1.3-0.2,2.5-0.3,3.8c0.4-0.1,0.7-0.1,1.1-0.2c1-0.2,1.9-0.3,2.5-0.3
			c0.6,0,1.1,0.2,1.5,0.6c0.4,0.4,0.7,0.9,0.6,1.4c0,0.5-0.2,1-0.6,1.4c-0.4,0.4-0.9,0.6-1.4,0.6c-0.3,0-0.6-0.1-0.9-0.1
			c-0.3,0-0.7,0-1,0c-0.8,0-1.3,0.1-1.6,0.4c-0.3,7-0.7,14-1,21c1.5,0,3,0,4.5,0c3,0.1,4.5,0.7,4.5,1.9c0,0.1,0,0.2,0,0.3
			c-0.3,0.5-0.9,1-1.8,1.3c-0.9,0.3-1.7,0.5-2.5,0.6c-0.9,0-1.8,0-2.7,0c-0.8,0-1.7-0.1-2.5-0.1C519.7,950.8,518.8,950.6,518,950.4z
			"/>
		<path class="st4" d="M555.3,950.9c-0.9-0.2-1.4-0.8-1.4-1.9c-0.3-13.2-0.6-26.4-0.9-39.6c0-0.8-0.2-1.9-0.5-3.5
			c-0.4-1.4-0.6-2.6-0.6-3.5c0-0.1,0-0.1,0-0.2c0.8-1.3,1.4-2.1,1.7-2.5c0.7,0,1.6-0.1,2.7-0.3c1-0.2,1.9-0.3,2.6-0.4
			c0.8,0,1.5,0.2,2.3,0.6c0.7,0.4,1.1,0.9,1.1,1.5c0.1,1.4-1,2.1-3.2,2.2c-0.3,0-0.7,0-1,0c-0.3,0-0.6,0-1,0c-0.4,0-0.7,0-0.8,0.1
			c0,1.5,0.2,3.4,0.5,5.6c0.1,0.6,0.1,1.3,0.2,1.9c0.1,1.2,0.2,2.5,0.3,3.7c0,0.9,0,2.2-0.1,4c0,1.3,0,2.5,0,3.8
			c0.4-0.1,0.7-0.2,1.1-0.2c1-0.3,1.8-0.5,2.5-0.5c0.6,0,1.1,0.1,1.5,0.5c0.5,0.4,0.7,0.8,0.7,1.3c0,0.5-0.1,1-0.5,1.5
			c-0.4,0.4-0.8,0.7-1.4,0.7c-0.3,0-0.6,0-0.9,0c-0.3,0-0.7,0-1,0c-0.8,0-1.3,0.2-1.6,0.5c0.2,7,0.5,14,0.7,21.1
			c1.5-0.1,3-0.2,4.5-0.4c3-0.1,4.6,0.4,4.7,1.6c0,0.1,0,0.2,0,0.3c-0.3,0.6-0.9,1-1.7,1.4c-0.8,0.4-1.7,0.6-2.5,0.8
			c-0.9,0.1-1.8,0.1-2.7,0.2c-0.8,0-1.7,0.1-2.5,0.1C556.9,951.2,556,951.1,555.3,950.9z"/>
		<path class="st4" d="M589.8,948.2c-0.4-0.2-0.7-0.7-0.7-1.3c-0.3-3-0.6-5.9-0.9-8.9c-0.7-0.3-2-0.6-4-0.7s-3.7-0.2-5.4-0.2
			c-0.5,1-0.8,2.2-1,3.6c-0.1,0.5-0.1,0.9-0.2,1.4c0,0.3-0.1,1-0.3,2.1c-0.2,1.1-0.4,2.1-0.7,2.9c-0.3,0.8-0.5,1.5-0.8,1.9
			c-2,0.1-3.3-0.2-3.6-1.1c0.5-0.8,1.1-2.9,1.6-6.5c0.6-4.2,1.2-8.4,1.7-12.6c0.7-6,1.3-11.1,1.9-15.3c0.6-4.2,1.3-7.8,2-10.7
			c0.8-3.2,1.7-4.9,2.7-5c1-0.1,1.8,0,2.3,0.3c0.2,1.8,1.1,6.1,2.7,13c1.7,6.7,2.7,11.3,3,13.7c0.3,2.4,0.9,5.8,2,10.2
			c1,4.5,1.7,8.1,2,10.8c0.2,1.5-0.6,2.4-2.4,2.6C590.8,948.5,590.2,948.4,589.8,948.2z M587.7,933.9c-0.4-2-0.9-4.4-1.5-7.3
			c-2.2-10.1-3.3-16.3-3.5-18.6c0-0.2,0-0.4-0.1-0.5c-0.4,0.5-0.9,2.6-1.5,6.3c-0.5,3.7-1,7.7-1.4,11.9c-0.4,4.2-0.6,7-0.6,8.4
			c2.2,0.4,4.6,0.4,7,0.2C586.5,934.2,587,934.1,587.7,933.9z"/>
		<path class="st4" d="M603.6,947.6c-0.9-0.3-1.4-0.7-1.5-1.3c-0.1-0.5,0-1,0.3-1.4c0.3-0.4,0.7-0.6,1.3-0.7c0.5-0.1,1.3,0,2.4,0.2
			c1.2,0.2,1.9,0.3,2.2,0.3c1-0.1,1.9-0.6,2.6-1.5c0.7-0.9,1.2-1.9,1.5-3.2c0.6-2.4,0.8-4.5,0.5-6.3c-0.3-1.9-1-3.9-2-5.9
			c-1-2-2.3-4-3.7-5.8c-0.5-0.7-1-1.3-1.5-2c-1.6-2.1-2.8-3.7-3.6-4.9c-0.9-1.2-1.6-2.6-2.3-4c-1-2.1-1.7-4.1-1.9-6.1
			c-0.2-1.6-0.1-3.2,0.3-4.7c0.4-1.5,1.1-2.9,2.2-4c1-1.2,2.4-2,4.2-2.3c0.9-0.1,1.7,0,2.6,0.3c0.9,0.3,1.5,0.9,2,1.5
			c-0.3,0.5-0.7,1.1-1,1.6c-1.2,0.2-2.2,0.1-2.9-0.2c-0.8,0.2-1.5,0.7-2.1,1.5c-0.5,0.8-0.9,1.7-1.1,2.6c-0.2,0.9-0.2,1.8-0.1,2.6
			c0.2,1.7,0.7,3.4,1.5,5.1c0.8,1.7,1.7,3.3,2.8,4.7c2.2,2.9,4.4,5.8,6.7,8.6c1.1,1.5,2.1,3.2,2.9,5.1c0.8,1.9,1.4,3.9,1.8,5.9
			c0.5,3,0.1,5.9-1.2,8.8c-0.7,1.5-1.7,2.7-3,3.7c-1.3,1-2.9,1.6-4.6,1.9C606.8,948.1,605.1,948,603.6,947.6z"/>
		<path class="st4" d="M632.8,942.6c-0.5-0.2-0.7-0.6-0.8-1c-0.4-2.2-0.7-4.3-1.1-6.5c-0.4-2.9-0.8-5.1-1-6.5
			c-0.3-1.3-0.9-3.2-1.8-5.6c-1-2.4-1.6-4.3-1.9-5.7c-0.3-1.7-1-3.6-1.9-5.7c-1-2.1-2-4.1-3.2-5.9c-1.1-1.8-2.2-3.7-3.1-5.8
			c-0.9-2.1-1.5-4-1.8-5.7c-0.1-0.3,0.1-0.6,0.4-0.9c0.3-0.3,0.7-0.5,1.1-0.6c0.5-0.1,1.1,0.3,1.8,1.3c0.8,1.1,1.6,2.6,2.6,4.6
			c0.9,2,1.5,3.2,1.7,3.6c0.6,1.5,1.2,3,1.8,4.4c0.4,0.9,0.9,1.9,1.3,2.8c0-0.7-0.1-1.7-0.2-2.9c-0.4-3.8-0.7-6.9-0.7-9.4
			c0-1.8,0.1-3.1,0.4-4.1c0.3-1.1,0.7-1.7,1.4-1.8c1.3-0.3,2-0.2,2.1,0.3c0.5,2.5,0.8,6.4,0.6,11.6c-0.1,5.2,0,9.1,0.6,11.7
			c0,0.4,0,0.7,0.1,1.1c0,0.7,0.1,1.1,0.2,1.2c0.1,0.4,0.1,0.7,0.2,1.1c0.4,1.9,1.1,4.8,2,8.8c0.7,3,1.3,5.9,2,8.9
			c0.2,0.5,0.3,1,0.5,1.5c0.2,0.5,0.3,1,0.5,1.6c0.1,0.6,0.2,1.1,0.3,1.7c0.1,0.5-0.1,1-0.5,1.5c-0.5,0.5-1.1,0.8-1.8,1
			C633.7,942.9,633.3,942.8,632.8,942.6z"/>
		<path class="st4" d="M664.7,930.4c-1.4-5.1-3.9-13.1-7.4-24.2c-3.5-11.1-5.6-16.8-6.2-17.3c-0.3-1.2-0.1-2.3,0.8-3.2
			c0.3-0.3,0.8-0.6,1.4-1c0.6-0.3,1.2-0.6,1.8-0.7c0.3-0.1,0.8-0.3,1.7-0.6c1.1-0.3,1.9-0.4,2.4-0.2c0.6,0.2,1,0.7,1.2,1.5
			c0.1,0.5,0.1,0.9-0.2,1.2c-0.3,0.3-0.7,0.6-1.3,0.8c-0.2,0-0.5,0.1-0.7,0.1c-0.3,0.1-0.7,0.2-1,0.3c-1.3,0.4-1.9,0.8-1.8,1.3
			c0.6,2.3,1.6,5.2,3,8.8c1.1,3,2.2,5.8,3,8.6c0.3-0.2,0.9-0.5,1.8-1c0.9-0.5,1.6-0.8,2.1-0.9c0.5-0.2,1.1-0.1,1.6,0.2
			c0.5,0.3,0.8,0.7,1,1.2c0.2,0.6,0,1.1-0.6,1.6c-0.1,0.1-0.3,0.2-0.6,0.5c-0.3,0.3-0.8,0.5-1.4,0.7c-0.4,0.2-1.2,0.5-2.2,0.8
			c-0.3,0.1-0.5,0.2-0.8,0.2c0.7,2.6,2,6.1,3.8,10.5c1.8,4.6,3,8.1,3.7,10.5c0,0.1,0,0.2,0,0.3c0,0.1,0,0.1,0,0.2
			c0.1,0.2,0.2,0.4,0.3,0.8c0.2,0.6,0.1,1.1-0.3,1.5c-0.4,0.5-1,0.8-1.7,1C666.6,934.4,665.5,933.2,664.7,930.4z"/>
		<path class="st4" d="M691.3,927.6c-1.4-0.4-2.7-1.1-4-2.2c-2.3-1.8-4.4-4.7-6.4-8.5c-1.4-2.7-2.8-5.8-4.2-9.4
			c-0.4-1.1-0.8-2.3-1.2-3.4c-0.4-1.2-0.7-2.3-1.1-3.5c-0.4-1.1-0.9-2.5-1.4-4.1c-0.8-2.6-1.4-4.9-1.8-7c-0.5-2.1-0.6-4.3-0.6-6.6
			c0.2-2,0.8-3.6,2-4.8c0.7-0.6,1.5-1.1,2.3-1.3c2.4-0.8,4.7-0.6,6.7,0.7c2.3,1.5,4.1,3.3,5.5,5.6c1.8,2.7,3.3,5.4,4.4,8.1
			c1.3,3,2.4,5.8,3.4,8.5c0.4,1.2,0.9,2.4,1.3,3.7c0.3,0.7,0.6,2.1,1.1,4.2c0.4,1.7,0.8,3,1.2,4.1c0,0.1,0.1,0.2,0.1,0.3
			c0.1,1.3,0.5,2.8,1.1,4.4c0.4,1.2,0.6,2.5,0.4,4.1c-0.2,1.5-0.6,2.9-1.4,4.2c-0.8,1.4-1.9,2.4-3.3,2.9
			C694.1,927.9,692.6,928,691.3,927.6z M696.2,920.5c0.1-1.6,0-3.5-0.5-5.6c-0.4-2.1-1-4.5-1.7-7.2c-0.3-1.1-0.8-2.6-1.4-4.4
			c-0.7-2-1.5-3.9-2.2-5.9c-0.9-2.3-2.2-5.1-3.9-8.4c-1.4-2.8-3.1-5.2-4.9-7.1c-0.8-0.9-1.7-1.5-2.6-1.9c-0.9-0.4-1.7-0.4-2.5-0.2
			c-1.2,0.4-1.7,1.5-1.7,3.4c-0.1,2,0,4.1,0.5,6.3c0.5,2.4,1,4.6,1.6,6.7c0.2,0.7,0.4,1.4,0.6,2.2c0.1,0.6,0.4,1.5,0.7,2.5
			c0,0.1,0.1,0.2,0.1,0.3c0.9,2.9,2.4,6.4,4.5,10.4c2.7,5.5,5.2,9.2,7.6,11.1c1.5,1.2,2.9,1.6,4,1.2
			C695.4,923.5,696,922.4,696.2,920.5z"/>
		<path class="st4" d="M722.9,913.7c0-0.1-0.1-0.1-0.1-0.2c-1.1-2.2-2.6-4.4-4.4-6.9c-1.9-2.4-4.3-5.3-7.3-8.6
			c-2.2-2.5-4.2-4.7-5.8-6.8c3.3,8.3,6.6,16.6,9.9,25c0.3,0.7,0.3,1.2,0.2,1.7c-0.2,0.4-0.6,0.8-1.5,1.1c-0.6,0.2-1.2,0.3-1.6,0.1
			c-0.5-0.2-0.8-0.5-1-1c-0.1-0.2-0.1-0.3-0.2-0.5c-2.4-6.3-4.7-12.5-7.1-18.8c-2-5.5-4.4-11.8-7.1-18.7c-1-2.6-2-5.2-3-7.8
			c-0.2-0.5-0.2-0.9-0.1-1.2c0.2-0.3,0.6-0.6,1.3-0.8c1.1-0.4,2.3-0.7,3.4-0.6c1.1,0,2.2,0.2,3.1,0.7c2,0.9,3.7,2.3,4.9,4.2
			c0.5,0.8,1,1.7,1.5,2.8c0.3,0.6,0.5,1.3,0.7,2.1c0.2,0.8,0.3,1.3,0.4,1.5c0.1,0.5,0.1,1.2,0.2,2.2c0,1,0,1.6,0,1.9
			c0,0.7-0.1,1.4-0.1,2.1c0,0.6,0,1.3,0,1.9c0.7,1.5,1.7,3.3,3.3,5.4c1.5,2.1,3,4,4.5,5.7c1.1,1.2,2.9,3.1,5.6,5.8
			c1.5,1.5,3,3.1,4.5,4.6c0,0,0,0.1,0.1,0.1c0.3,0.7,0.5,1.3,0.6,1.9c0.1,0.7-0.3,1.3-1.2,1.7C725.4,914.6,724.3,914.5,722.9,913.7z
			 M705.4,885.1c-0.4-2-0.8-3.9-1.2-5.9c0-0.2-0.1-0.5-0.3-0.9c-0.5-1.2-1.3-2.5-2.5-3.9c-0.6-0.6-1.2-1.1-1.8-1.5
			c-0.6-0.4-1.2-0.5-1.7-0.3c0.8,2.1,1.6,4.3,2.4,6.4c1,2.9,1.8,5.1,2.4,6.7c0.6,1.5,1,2.4,1.2,2.9
			C704.4,887.7,704.9,886.5,705.4,885.1z"/>
		<path class="st4" d="M751.8,902.1c-0.5-0.1-0.9-0.4-1.1-0.8c-0.9-2-1.9-4-2.8-6c-1.2-2.7-2.1-4.7-2.7-6c-0.6-1.2-1.7-2.8-3.3-4.9
			c-1.6-2-2.7-3.7-3.3-5c-0.8-1.5-1.9-3.2-3.4-4.9c-1.5-1.7-3.1-3.4-4.7-4.8c-1.6-1.4-3.1-3-4.6-4.8c-1.5-1.8-2.6-3.4-3.3-5
			c-0.1-0.3-0.1-0.6,0.2-1c0.3-0.4,0.6-0.7,1-0.8c0.5-0.2,1.2,0,2.1,0.7c1,0.8,2.3,2,3.7,3.7c1.4,1.7,2.3,2.7,2.6,3
			c1,1.3,2,2.5,3,3.8c0.7,0.8,1.3,1.6,2,2.3c-0.2-0.7-0.5-1.6-0.9-2.7c-1.4-3.5-2.5-6.5-3.2-8.9c-0.5-1.7-0.7-3.1-0.7-4.1
			c0-1.1,0.3-1.8,0.9-2.1c1.2-0.6,1.9-0.7,2.1-0.3c1.2,2.3,2.4,6,3.7,11c1.2,5,2.4,8.8,3.6,11.1c0.1,0.3,0.2,0.7,0.4,1
			c0.2,0.7,0.4,1,0.5,1.1c0.2,0.3,0.3,0.6,0.5,1c0.9,1.7,2.3,4.4,4.3,7.9c1.4,2.7,2.8,5.3,4.3,8c0.3,0.4,0.6,0.9,0.9,1.3
			c0.3,0.5,0.6,0.9,0.9,1.4c0.3,0.5,0.5,1,0.8,1.5c0.2,0.5,0.2,1-0.1,1.6c-0.3,0.6-0.8,1.1-1.5,1.4
			C752.8,902.2,752.3,902.2,751.8,902.1z"/>
		<path class="st4" d="M773.5,891c-1.5-0.1-2.9-0.6-4.4-1.4c-2.6-1.4-5.2-3.7-8-7.1c-1.9-2.3-3.9-5.1-5.9-8.4
			c-0.6-1-1.2-2.1-1.8-3.1c-0.6-1.1-1.2-2.2-1.8-3.2c-0.6-1-1.3-2.3-2.1-3.7c-1.3-2.4-2.3-4.6-3.1-6.5c-0.9-2-1.5-4.1-1.8-6.4
			c-0.2-2,0.2-3.7,1.1-5.1c0.6-0.8,1.3-1.3,2.1-1.8c2.3-1.3,4.5-1.5,6.8-0.6c2.5,1,4.7,2.5,6.6,4.4c2.3,2.3,4.3,4.7,5.9,7.1
			c1.8,2.7,3.5,5.2,5,7.7c0.7,1.1,1.3,2.2,2,3.3c0.4,0.7,1,2,1.9,3.9c0.7,1.6,1.3,2.8,1.9,3.8c0,0.1,0.1,0.2,0.1,0.2
			c0.4,1.3,1,2.6,1.9,4.1c0.7,1.1,1.1,2.4,1.2,3.9c0.1,1.5-0.1,3-0.7,4.4c-0.5,1.6-1.4,2.7-2.8,3.5C776.4,890.7,775,891.1,773.5,891
			z M777.1,883.1c-0.2-1.6-0.7-3.5-1.5-5.5c-0.8-2-1.9-4.2-3.1-6.7c-0.5-1.1-1.2-2.4-2.2-4c-1.1-1.8-2.2-3.6-3.3-5.4
			c-1.3-2.1-3.2-4.5-5.5-7.5c-1.9-2.5-4-4.5-6.2-6c-1-0.7-2-1.2-3-1.4c-1-0.2-1.8-0.1-2.6,0.4c-1.1,0.6-1.4,1.8-1.1,3.7
			c0.3,2,0.8,4,1.7,6.1c0.9,2.3,1.9,4.4,2.9,6.3c0.3,0.7,0.7,1.3,1,2c0.3,0.6,0.7,1.4,1.2,2.3c0,0.1,0.1,0.2,0.1,0.2
			c1.5,2.7,3.6,5.8,6.4,9.3c3.7,4.9,6.9,8,9.7,9.4c1.7,0.8,3.2,1,4.2,0.3C776.9,886.1,777.3,884.9,777.1,883.1z"/>
		<path class="st4" d="M796.8,873.1c-3.2-0.9-6.1-2.7-8.8-5.3c-2.9-2.7-5.6-5.9-8.2-9.5c-2.4-3.2-4.8-6.8-7.3-10.8
			c-1-1.6-2-3.2-3-4.8c-0.8-1.4-1.7-2.8-2.6-4.3c-0.5-0.1-0.9-0.4-1.2-0.8c-0.3-0.5-0.4-1-0.2-1.6c0.2-0.6,0.5-1.1,0.9-1.3
			c1.5-1,3.1-0.1,4.9,2.6c1.1,1.8,3.4,5,6.8,9.8c3.4,4.7,5.6,8,6.8,9.7c0.5,0.4,1.4,1.2,2.6,2.6c1.2,1.4,2.1,2.5,2.7,3.5
			c0.5,0.8,1.4,1.8,2.5,2.8c1.1,1,2.4,2,3.8,2.8c1.5,0.9,3,1.5,4.5,1.7c1.5,0.2,2.9-0.1,3.9-0.8c0.6-0.4,1.1-1,1.3-1.6
			c0.2-0.6,0.2-1.3-0.1-2.1c-0.4-1.2-1-2.4-1.7-3.4c-2.5-3.6-5-7.3-7.5-10.9c-1-1.4-2.3-3-4.1-5c-1.9-2.2-3.2-3.9-4.1-5.1
			c-0.1-0.1-0.2-0.3-0.3-0.4c-0.4-0.6-0.8-1.1-1.2-1.6c-0.4-0.5-0.8-1.1-1.2-1.6c-0.7-1-1.9-2.6-3.5-4.7c-1.5-1.8-2.7-3.4-3.6-4.7
			c-0.3-0.4-0.3-0.9,0-1.6c0.3-0.6,0.7-1.1,1.3-1.5c0.8,0.1,1.6,0.1,2.4,0.2c0.2,0.3,0.4,0.6,0.7,0.9c0.3,0.4,0.6,1,0.9,1.8
			c0.6,1.2,0.9,1.8,1,2c2.4,3.4,5.8,7.9,10.4,13.6c4.8,6,8.4,10.7,10.8,14.1c1.3,1.9,2.2,3.7,2.8,5.4c0.3,1,0.4,2,0.3,2.9
			c-0.1,0.9-0.5,1.8-1,2.7c-0.5,0.9-1.4,1.8-2.7,2.7C802.8,873.6,799.8,874.1,796.8,873.1z"/>
	</g>
</g>
</svg>
